<?xml version="1.0"?>
<svg width="192" height="192" xmlns="http://www.w3.org/2000/svg" xmlns:svg="http://www.w3.org/2000/svg">
 <g>
  <title>Layer 1</title>
  <g stroke="null" id="svg_1">
   <path stroke="null" d="m128.663788,86.586807l-65.892349,25.980423l65.892349,-25.980423zm33.228561,-65.892368l-9.413193,0l0,-18.826389l-18.826385,0l0,18.826389l-75.305553,0l0,-18.826389l-18.826389,0l0,18.826389l-9.413193,0c-10.44866,0 -18.732257,8.471882 -18.732257,18.826393l-0.094136,131.78474c0,10.354492 8.377733,18.826385 18.826393,18.826385l131.784714,0c10.354523,0 18.826401,-8.471893 18.826401,-18.826385l0,-131.78474c0,-10.354511 -8.471878,-18.826393 -18.826401,-18.826393zm0,150.611134l-131.784714,0l0,-103.545158l131.784714,0l0,103.545158z" id="svg_2" fill="#03A9F4"/>
   <text stroke="null" transform="matrix(5.729757884526687,0,0,4.795998703680047,-323.23936285016157,-480.54375944116595) " xml:space="preserve" text-anchor="middle" font-family="Roboto" font-size="16" id="svg_3" y="130.790931" x="73.187823" stroke-linecap="null" stroke-linejoin="null" stroke-dasharray="null" stroke-width="0" fill="#0277BD">N</text>
  </g>
 </g>
</svg>