<?xml version="1.0"?>
<svg width="192" height="192" xmlns="http://www.w3.org/2000/svg" xmlns:svg="http://www.w3.org/2000/svg">
 <g>
  <path d="m120.181557,89.03125l-48.781227,19.233757l48.781227,-19.233757zm24.599693,-48.78125l-6.96875,0l0,-13.9375l-13.9375,0l0,13.9375l-55.75,0l0,-13.9375l-13.9375,0l0,13.9375l-6.96875,0c-7.735321,0 -13.867809,6.271881 -13.867809,13.9375l-0.069691,97.5625c0,7.665634 6.202179,13.9375 13.9375,13.9375l97.5625,0c7.665619,0 13.9375,-6.271866 13.9375,-13.9375l0,-97.5625c0,-7.665619 -6.271881,-13.9375 -13.9375,-13.9375zm0,111.5l-97.5625,0l0,-76.65625l97.5625,0l0,76.65625z" id="svg_2" fill="#0277BD"/>  
  <text transform="matrix(3.5135655490824726,0,0,3.085638853088101,-186.21068842075192,-255.9537395307307) " xml:space="preserve" text-anchor="middle" font-family="Roboto" font-size="24" id="svg_3" y="128.496036" x="80.326239" stroke-linecap="null" stroke-linejoin="null" stroke-dasharray="null" stroke-width="0" fill="#0277BD">N</text>
 </g>
</svg>